# xmcd CD database file
#
# Track frame offsets:
#	150
#	30122
#	57947
#	85891
#	113069
#	147128
#	176902
#	205477
#	230590
#	262431
#
# Disc length: 3886 seconds
#
# Revision: 0
# Processed by: cddbd v1.5.2PL0 Copyright (c) Steve Scherf et al.
# Submitted via: CDex 1.51
#
DISCID=8e0f2c0a
DTITLE=Jimmy Herring - Lifeboat
DYEAR=2008
DGENRE=Jazz
TTITLE0=Jimmy Herring - Scapegoat Blues
TTITLE1=Jimmy Herring - Only When It's Light
TTITLE2=Jimmy Herring - New Moon
TTITLE3=Jimmy Herring - Lifeboat Serenade
TTITLE4=Jimmy Herring - One Strut
TTITLE5=Jimmy Herring - Jungle Book Overture
TTITLE6=Jimmy Herring - Lost
TTITLE7=Jimmy Herring - Transients
TTITLE8=Jimmy Herring - Gray Day
TTITLE9=Jimmy Herring - Splash
EXTD=YEAR: 2008
EXTT0=
EXTT1=
EXTT2=
EXTT3=
EXTT4=
EXTT5=
EXTT6=
EXTT7=
EXTT8=
EXTT9=
PLAYORDER=
